# xmcd
#
# Track frame offsets:
#	182
#	11160
#	25910
#	39362
#	51427
#	64457
#	78112
#	91037
#	103505
#	114847
#	127220
#	140100
#	152732
#	165777
#	179132
#	191680
#	204845
#	218180
#	232060
#	245810
#	259687
#	274285
#
# Disc length: 3832 seconds
#
# Revision: 1
# Processed by: cddbd v1.5.2PL0 Copyright (c) Steve Scherf et al.
# Submitted via: EasyCDDAExtractor 12.0.0.1
#
DISCID=3e0ef616
DTITLE=Various Artist - Atomic Boogie
DYEAR=2001
DGENRE=Blues
TTITLE0=Big Joe Turner - Nobody In Mind
TTITLE1=Big Joe Turner - Lucille, Lucille
TTITLE2=Big Joe Turner - Lucille, Lucille
TTITLE3=Big Joe Turner - Rocks In My Bed
TTITLE4=Big Joe Turner - Careless Love
TTITLE5=Big Joe Turner - Last Goodbye Blues
TTITLE6=Big Joe Turner - Whistle Stop Blues
TTITLE7=Big Joe Turner - Hollywood Bed (Cherry Red Blues)
TTITLE8=Big Joe Turner - Howlin' Winds
TTITLE9=Pete Johnson - 1946 Stomp (AKA 1280 Stomp)
TTITLE10=Pete Johnson - Atomic Boogie
TTITLE11=Pete Johnson - Back Room Blues
TTITLE12=Pete Johnson - Pete's Lonesome Blues
TTITLE13=Pete Johnson - Mr. Drum Meets Mr. Piano
TTITLE14=Pete Johnson - Mutiny In The Doghouse
TTITLE15=Pete Johnson - Mr. Clarinet Knocks Twice
TTITLE16=Pete Johnson - Ben Rides Out
TTITLE17=Pete Johnson - Page Mr. Trumpet
TTITLE18=Pete Johnson - J.C. From K.C.
TTITLE19=Pete Johnson - Pete's Housewarming
TTITLE20=Big Joe Turner - How Long, How Long Blues
TTITLE21=Big Joe Turner - Shake It And Break It
EXTD=
EXTT0=
EXTT1=
EXTT2=
EXTT3=
EXTT4=
EXTT5=
EXTT6=
EXTT7=
EXTT8=
EXTT9=
EXTT10=
EXTT11=
EXTT12=
EXTT13=
EXTT14=
EXTT15=
EXTT16=
EXTT17=
EXTT18=
EXTT19=
EXTT20=
EXTT21=
PLAYORDER=
